<svg width="15" height="18" viewBox="0 0 15 18" fill="none" xmlns="http://www.w3.org/2000/svg">
<path d="M12.2313 9.57256C12.2402 8.88263 12.4235 8.20617 12.764 7.6061C13.1046 7.00604 13.5914 6.50187 14.1792 6.1405C13.8058 5.60722 13.3132 5.16835 12.7405 4.85875C12.1679 4.54915 11.5309 4.37735 10.8802 4.35699C9.49213 4.21129 8.14648 5.18757 7.43916 5.18757C6.71815 5.18757 5.62912 4.37145 4.45641 4.39558C3.69787 4.42009 2.95861 4.64067 2.31066 5.03582C1.66272 5.43098 1.12818 5.98724 0.759135 6.65041C-0.839491 9.41818 0.352939 13.4859 1.88429 15.7231C2.65046 16.8187 3.54588 18.0424 4.71754 17.999C5.86407 17.9514 6.29227 17.2679 7.67623 17.2679C9.04735 17.2679 9.4491 17.999 10.6445 17.9714C11.8748 17.9514 12.6499 16.871 13.3892 15.7651C13.9397 14.9845 14.3633 14.1218 14.6443 13.2089C13.9296 12.9066 13.3196 12.4005 12.8905 11.7539C12.4614 11.1073 12.2322 10.3486 12.2313 9.57256Z" fill="black"/>
<path d="M9.97331 2.88531C10.6441 2.08004 10.9746 1.045 10.8946 0C9.86972 0.107639 8.92307 0.597442 8.2432 1.37182C7.9108 1.75012 7.65621 2.19023 7.49399 2.66698C7.33178 3.14373 7.26512 3.64778 7.29782 4.15031C7.81042 4.15559 8.31754 4.04448 8.78098 3.82536C9.24442 3.60625 9.6521 3.28483 9.97331 2.88531Z" fill="black"/>
</svg>
